<svg width="82" height="60" viewBox="0 0 82 60" fill="none" xmlns="http://www.w3.org/2000/svg">
<path d="M1.19085 15.5201C0.533503 15.5201 0 14.9866 0 14.3292V2.83416C0 2.17681 0.533503 1.64331 1.19085 1.64331C1.84821 1.64331 2.38171 2.17681 2.38171 2.83416V14.3292C2.38171 14.9866 1.84821 15.5201 1.19085 15.5201Z" fill="white"/>
<path d="M5.1618 53.7646C4.50445 53.7646 3.97095 53.2311 3.97095 52.5737V18.7573C3.97095 18.0999 4.50445 17.5664 5.1618 17.5664C5.81915 17.5664 6.35266 18.0999 6.35266 18.7573V52.5728C6.35266 53.2311 5.81915 53.7646 5.1618 53.7646Z" fill="white"/>
<path d="M5.14748 19.5947C2.34469 19.5947 0.0639648 17.2615 0.0639648 14.393C0.0639648 13.7357 0.597468 13.2021 1.25482 13.2021C1.91217 13.2021 2.44567 13.7357 2.44567 14.393C2.44567 15.9478 3.65749 17.2129 5.14748 17.2129C5.80484 17.2129 6.33834 17.7465 6.33834 18.4038C6.33834 19.0612 5.80484 19.5947 5.14748 19.5947Z" fill="white"/>
<path d="M4.93011 15.5201C4.27276 15.5201 3.73926 14.9866 3.73926 14.3292V2.83416C3.73926 2.17681 4.27276 1.64331 4.93011 1.64331C5.58746 1.64331 6.12097 2.17681 6.12097 2.83416V14.3292C6.12097 14.9866 5.58746 15.5201 4.93011 15.5201Z" fill="white"/>
<path d="M8.64471 15.5201C7.98736 15.5201 7.45386 14.9866 7.45386 14.3292V2.83416C7.45386 2.17681 7.98736 1.64331 8.64471 1.64331C9.30206 1.64331 9.83557 2.17681 9.83557 2.83416V14.3292C9.83557 14.9866 9.30206 15.5201 8.64471 15.5201Z" fill="white"/>
<path d="M79.9112 54.0169C79.2538 54.0169 78.7203 53.4834 78.7203 52.8261C78.7203 52.4212 78.7232 19.0877 78.7213 7.45165C76.9674 11.5577 74.7362 18.6685 74.7362 20.4272C74.7362 22.8051 76.5015 23.0623 77.2599 23.0623C77.9172 23.0623 78.4507 23.5958 78.4507 24.2532C78.4507 24.9105 77.9172 25.444 77.2599 25.444C74.3256 25.444 72.3545 23.4282 72.3545 20.4272C72.3545 18.8972 76.5587 2.29858 79.9112 2.29858C79.9883 2.29858 80.0655 2.30621 80.1408 2.3205C81.102 2.50913 81.102 2.62536 81.103 5.60916V11.1976L81.102 52.8261C81.102 53.4844 80.5685 54.0169 79.9112 54.0169Z" fill="white"/>
<path d="M40.3994 60C23.857 60 10.3994 46.5414 10.3994 30C10.3994 13.4586 23.857 0 40.3994 0C56.9418 0 70.3994 13.4586 70.3994 30C70.3994 46.5414 56.9418 60 40.3994 60ZM40.3994 2.73992C25.368 2.73992 13.1393 14.9686 13.1393 29.999C13.1393 45.0295 25.368 57.2591 40.3994 57.2591C55.4309 57.2591 67.6595 45.0305 67.6595 30C67.6595 14.9695 55.4309 2.73992 40.3994 2.73992Z" fill="white"/>
<path d="M40.3995 51.1143C28.7567 51.1143 19.2842 41.6418 19.2842 29.9991C19.2842 18.3563 28.7558 8.88379 40.3995 8.88379C52.0432 8.88379 61.5147 18.3563 61.5147 29.9991C61.5147 41.6418 52.0422 51.1143 40.3995 51.1143ZM40.3995 11.6247C30.2677 11.6247 22.0241 19.8673 22.0241 29.9991C22.0241 40.1309 30.2667 48.3735 40.3995 48.3735C50.5322 48.3735 58.7748 40.1309 58.7748 29.9991C58.7748 19.8673 50.5312 11.6247 40.3995 11.6247Z" fill="white"/>
</svg>
