<svg
  width="30"
  height="30"
  viewBox="0 0 30 30"
  fill="none"
  xmlns="http://www.w3.org/2000/svg"
>
  <path
  class="path-star"
    d="M15 8.53063L14.9684 6.4375C12.69 6.85 10.8544 7.13531 8.22781 7.19875C10.1266 5.39125 11.6141 4.28125 13.5125 2.94937L12.0569 1.45875C10.7278 3.36156 9.58844 4.85187 7.785 6.75469C7.84781 4.1225 8.10094 2.28344 8.5125 0H6.45531C6.86687 2.28344 7.12 4.1225 7.18344 6.75469C5.34781 4.85187 4.27187 3.36156 2.91094 1.45875L1.45531 2.94937C3.35406 4.28125 4.84156 5.39125 6.70844 7.19875C4.11406 7.10312 2.31 6.85 0 6.4375V8.53063C2.31 8.15 4.11406 7.89625 6.74062 7.80125C4.84188 9.64062 3.35438 10.7188 1.45563 12.0506L2.91125 13.5413C4.27219 11.6384 5.38 10.1481 7.18344 8.24531C7.12031 10.8775 6.86719 12.685 6.45563 15H8.5125C8.10125 12.685 7.84812 10.8775 7.78469 8.27687C9.62031 10.18 10.6962 11.6384 12.0569 13.5413L13.5125 12.0506C11.6141 10.7188 10.1581 9.60875 8.22812 7.83313C10.8859 7.89656 12.69 8.11844 15 8.53063Z"
    fill="#F19686"
  />
</svg>