<svg width="17" height="20" viewBox="0 0 17 20" fill="none" xmlns="http://www.w3.org/2000/svg">
<path d="M0 5.7346H5.75829V0H0V5.7346ZM0.947867 0.947867H4.81043V4.78673H0.947867V0.947867Z" fill="#F19686"/>
<path d="M0 12.8672H5.75829V7.13257H0V12.8672ZM0.947867 8.08044H4.81043V11.943H0.947867V8.08044Z" fill="#F19686"/>
<path d="M0 20H5.75829V14.2654H0V20ZM0.947867 15.2132H4.81043V19.0758H0.947867V15.2132Z" fill="#F19686"/>
<path d="M10.829 1.09009H7.98535V2.03796H10.829V1.09009Z" fill="#F19686"/>
<path d="M16.3977 3.69678H7.98535V4.64464H16.3977V3.69678Z" fill="#F19686"/>
<path d="M10.829 8.2229H7.98535V9.17077H10.829V8.2229Z" fill="#F19686"/>
<path d="M16.3977 10.8293H7.98535V11.7772H16.3977V10.8293Z" fill="#F19686"/>
<path d="M10.829 15.3555H7.98535V16.3033H10.829V15.3555Z" fill="#F19686"/>
<path d="M16.3977 17.9622H7.98535V18.91H16.3977V17.9622Z" fill="#F19686"/>
<path d="M2.48823 2.77265L2.01429 2.3935L1.42188 3.1281L2.55932 4.05227L4.21808 2.36981L3.53088 1.7063L2.48823 2.77265Z" fill="#F19686"/>
</svg>
