<svg width="32" height="30" viewBox="0 0 32 30" fill="none" xmlns="http://www.w3.org/2000/svg">
<path d="M20.7024 8.95214e-05C18.4237 8.95214e-05 16.4971 1.47361 15.7249 3.52675L10.9929 1.49557C10.884 1.44853 10.7651 1.42934 10.6469 1.43975C10.5738 1.44733 10.5023 1.46617 10.4349 1.49557L0.435271 5.78114C0.306048 5.83598 0.195848 5.92767 0.118435 6.04478C0.0410222 6.16188 -0.000171128 6.2992 5.34341e-07 6.43957V29.2959C0.00168313 29.413 0.032135 29.528 0.0886743 29.6305C0.145214 29.7331 0.226106 29.8202 0.324227 29.8841C0.422349 29.9481 0.534689 29.9869 0.651355 29.9972C0.768021 30.0075 0.885433 29.989 0.993252 29.9433L10.7139 25.7804L20.4346 29.9433C20.5228 29.9807 20.6177 30 20.7136 30C20.8094 30 20.9043 29.9807 20.9926 29.9433L30.9922 25.6577C31.1197 25.6036 31.2287 25.5137 31.306 25.3987C31.3833 25.2838 31.4255 25.1489 31.4275 25.0104V2.15401C31.4276 2.03596 31.3985 1.91971 31.3427 1.81567C31.2869 1.71163 31.2062 1.62303 31.1078 1.5578C31.0094 1.49258 30.8964 1.45277 30.7789 1.44191C30.6613 1.43105 30.5429 1.44948 30.4342 1.49557L25.7134 3.51561C24.9036 1.32212 22.8086 -0.0125886 20.7024 8.95214e-05ZM20.7024 1.42861C22.8691 1.42861 24.642 3.22729 24.642 5.50211C24.642 5.97413 24.4852 6.70435 24.3184 7.15384C23.125 9.68843 21.9164 12.2218 20.7136 14.7541C19.516 12.2193 18.297 9.69085 17.1088 7.15384C16.9422 6.70299 16.7851 5.97291 16.7851 5.50211C16.8742 2.90756 18.8251 1.44711 20.7024 1.42861ZM20.7135 3.21426C19.5385 3.21426 18.5707 4.18209 18.5707 5.35705C18.5707 6.532 19.5385 7.49983 20.7135 7.49983C21.8884 7.49983 22.8563 6.53204 22.8563 5.35705C22.8563 4.18205 21.8884 3.21426 20.7135 3.21426ZM9.99958 3.22534V24.5416L1.42845 28.2133V6.8971L9.99958 3.22534ZM11.4281 3.22534L15.3789 4.92171C15.3592 5.11298 15.3567 5.30569 15.3567 5.50204C15.3567 6.24512 15.5385 7.04703 15.7696 7.66719C17.1708 10.6375 18.5892 13.6131 19.9994 16.5843V28.2133L11.4283 24.5416V3.22534H11.4281ZM29.9989 3.22534V24.5416L21.4278 28.2133V16.5843C22.8205 13.6054 24.2811 10.6484 25.6575 7.66719C25.8905 7.04532 26.0704 6.24444 26.0704 5.50204C26.0704 5.30351 26.0551 5.11166 26.0369 4.92171L29.9988 3.22534H29.9989ZM20.7136 4.64278C21.1164 4.64278 21.4278 4.95413 21.4278 5.35705C21.4278 5.75996 21.1164 6.07131 20.7136 6.07131C20.3106 6.07131 19.9993 5.76 19.9993 5.35705C19.9993 4.95409 20.3106 4.64278 20.7136 4.64278Z" fill="#F19686"/>
</svg>
