<svg width="38" height="50" viewBox="0 0 38 50" fill="none" xmlns="http://www.w3.org/2000/svg">
<path d="M18.9655 0C15.4434 0 11.9909 0.980795 8.99476 2.83248C5.99867 4.68417 3.57739 7.3336 2.00225 10.4839C0.427111 13.6342 -0.239664 17.1608 0.0766426 20.6687C0.392949 24.1766 1.67984 27.5271 3.79311 30.3448L18.2759 49.6552C18.3562 49.7622 18.4603 49.8491 18.58 49.909C18.6997 49.9688 18.8317 50 18.9655 50C19.0994 50 19.2314 49.9688 19.3511 49.909C19.4708 49.8491 19.5749 49.7622 19.6552 49.6552L34.1379 30.3448C36.2512 27.5271 37.5381 24.1766 37.8544 20.6687C38.1707 17.1608 37.5039 13.6342 35.9288 10.4839C34.3537 7.3336 31.9324 4.68417 28.9363 2.83248C25.9402 0.980795 22.4876 0 18.9655 0ZM25 33.2586V10.3448C24.999 10.1667 24.9428 9.9933 24.8392 9.84841C24.7356 9.70353 24.5897 9.59428 24.4215 9.53569C24.2533 9.47711 24.0711 9.47206 23.8999 9.52124C23.7287 9.57042 23.577 9.67142 23.4655 9.81034C21.1169 12.7541 19.8345 16.4065 19.8276 20.1724V23.2759C19.8276 23.9618 20.1001 24.6196 20.5851 25.1046C21.0701 25.5896 21.7279 25.8621 22.4138 25.8621H23.2759V33.8621C20.7528 34.6082 18.0791 34.6855 15.5173 34.0862V16.8448L16.9483 15.8879C17.3037 15.6519 17.5951 15.3315 17.7967 14.9555C17.9982 14.5795 18.1036 14.1594 18.1035 13.7328V11.2069C18.1035 10.9783 18.0126 10.759 17.851 10.5973C17.6893 10.4357 17.47 10.3448 17.2414 10.3448C17.0128 10.3448 16.7935 10.4357 16.6318 10.5973C16.4701 10.759 16.3793 10.9783 16.3793 11.2069V13.7328C16.3786 13.8747 16.3428 14.0144 16.2751 14.1392C16.2074 14.264 16.11 14.3702 15.9914 14.4483L15.5173 14.7672V10.3448C15.5173 10.1162 15.4264 9.89692 15.2648 9.73525C15.1031 9.57358 14.8838 9.48276 14.6552 9.48276C14.4265 9.48276 14.2073 9.57358 14.0456 9.73525C13.8839 9.89692 13.7931 10.1162 13.7931 10.3448V14.7672L13.319 14.4483C13.2004 14.3702 13.1029 14.264 13.0353 14.1392C12.9676 14.0144 12.9318 13.8747 12.931 13.7328V11.2069C12.931 10.9783 12.8402 10.759 12.6785 10.5973C12.5169 10.4357 12.2976 10.3448 12.069 10.3448C11.8403 10.3448 11.6211 10.4357 11.4594 10.5973C11.2977 10.759 11.2069 10.9783 11.2069 11.2069V13.7328C11.2067 14.1594 11.3121 14.5795 11.5137 14.9555C11.7152 15.3315 12.0067 15.6519 12.3621 15.8879L13.7931 16.8448V33.5776C10.381 32.3661 7.50002 29.9997 5.64891 26.8879C3.79779 23.7761 3.09314 20.1149 3.65695 16.5383C4.22077 12.9618 6.01755 9.69494 8.7362 7.30354C11.4548 4.91213 14.9242 3.54671 18.5434 3.4437C22.1627 3.34069 25.7041 4.50657 28.5543 6.73948C31.4046 8.97239 33.3843 12.1317 34.1506 15.6705C34.9169 19.2092 34.4217 22.9045 32.7505 26.1165C31.0794 29.3285 28.3377 31.8551 25 33.2586Z" fill="#F19686"/>
</svg>